<?xml version="1.0" standalone="no"?>
<!DOCTYPE svg PUBLIC "-//W3C//DTD SVG 1.1//EN" "http://www.w3.org/Graphics/SVG/1.1/DTD/svg11.dtd" >
<svg xmlns="http://www.w3.org/2000/svg">
<metadata>
Created by FontForge 20120731 at Tue Dec  6 16:34:17 2016
 By admin
</metadata>
<defs>
<font id="iconfont" horiz-adv-x="1024" >
  <font-face 
    font-family="iconfont"
    font-weight="500"
    font-stretch="normal"
    units-per-em="1024"
    panose-1="2 0 6 3 0 0 0 0 0 0"
    ascent="896"
    descent="-128"
    x-height="792"
    bbox="-0.0714286 -128 1024 896"
    underline-thickness="0"
    underline-position="0"
    unicode-range="U+0078-E78E"
  />
<missing-glyph 
 />
    <glyph glyph-name=".notdef" 
 />
    <glyph glyph-name=".notdef" 
 />
    <glyph glyph-name=".null" horiz-adv-x="0" 
 />
    <glyph glyph-name="nonmarkingreturn" horiz-adv-x="341" 
 />
    <glyph glyph-name="x" unicode="x" horiz-adv-x="1001" 
d="M281 543q-27 -1 -53 -1h-83q-18 0 -36.5 -6t-32.5 -18.5t-23 -32t-9 -45.5v-76h912v41q0 16 -0.5 30t-0.5 18q0 13 -5 29t-17 29.5t-31.5 22.5t-49.5 9h-133v-97h-438v97zM955 310v-52q0 -23 0.5 -52t0.5 -58t-10.5 -47.5t-26 -30t-33 -16t-31.5 -4.5q-14 -1 -29.5 -0.5
t-29.5 0.5h-32l-45 128h-439l-44 -128h-29h-34q-20 0 -45 1q-25 0 -41 9.5t-25.5 23t-13.5 29.5t-4 30v167h911zM163 247q-12 0 -21 -8.5t-9 -21.5t9 -21.5t21 -8.5q13 0 22 8.5t9 21.5t-9 21.5t-22 8.5zM316 123q-8 -26 -14 -48q-5 -19 -10.5 -37t-7.5 -25t-3 -15t1 -14.5
t9.5 -10.5t21.5 -4h37h67h81h80h64h36q23 0 34 12t2 38q-5 13 -9.5 30.5t-9.5 34.5q-5 19 -11 39h-368zM336 498v228q0 11 2.5 23t10 21.5t20.5 15.5t34 6h188q31 0 51.5 -14.5t20.5 -52.5v-227h-327z" />
    <glyph glyph-name="ipad" unicode="&#xe756;" 
d="M85 811q0 35 25 60t60 25h683q35 0 60 -25t25 -60v-854q0 -35 -25 -60t-60 -25h-683q-35 0 -60 25t-25 60v854zM128 811q0 17 12.5 29.5t29.5 12.5h683q18 0 30.5 -12.5t12.5 -29.5v-854q0 -17 -12.5 -29.5t-30.5 -12.5h-683q-17 0 -29.5 12.5t-12.5 29.5v854v0z
M511.5 43q17.5 0 30 -12.5t12.5 -30.5t-12.5 -30.5t-30 -12.5t-30 12.5t-12.5 30.5t12.5 30.5t30 12.5zM213 768h597v-640h-597v640z" />
    <glyph glyph-name="iMac" unicode="&#xe757;" 
d="M384 -64v86h-299q-35 0 -60 25t-25 60v683q0 35 25 60t60 25h854q35 0 60 -25t25 -60v-683q0 -35 -25 -60t-60 -25h-299v-86h107q9 0 15 -6t6 -15t-6 -15t-15 -6h-470q-9 0 -15 6t-6 15t6 15t15 6h107v0zM85 832h854q17 0 29.5 -12.5t12.5 -29.5v-598h-938v598
q0 17 12.5 29.5t29.5 12.5zM128 747h768v-469h-768v469z" />
    <glyph glyph-name="iPhone" unicode="&#xe758;" 
d="M171 811q0 35 25 60t60 25h512q36 0 61 -25t25 -60v-854q0 -35 -25 -60t-61 -25h-512q-35 0 -60 25t-25 60v854zM214 811q0 17 12.5 29.5t29.5 12.5h512q18 0 30.5 -12.5t12.5 -29.5v-854q0 -17 -12.5 -29.5t-30.5 -12.5h-512q-17 0 -29.5 12.5t-12.5 29.5v854zM299 725
h427v-597h-427v597zM512.5 43q17.5 0 30 -12.5t12.5 -30.5t-12.5 -30.5t-30 -12.5t-30 12.5t-12.5 30.5t12.5 30.5t30 12.5z" />
    <glyph glyph-name="iWatch" unicode="&#xe759;" 
d="M853 85q0 -35 -25 -60t-60 -25h-43v-43q0 -35 -25 -60t-60 -25h-342q-35 0 -60 25t-25 60v43h-43q-35 0 -60 25t-25 60v598q0 35 25 60t60 25h43v43q0 35 25 60t60 25h342q35 0 60 -25t25 -60v-43h43q35 0 60 -25t25 -60v-86q35 0 60 -25t25 -60t-25 -60t-60 -25v-342v0z
M256 0h426v-43q0 -17 -12.5 -29.5t-29.5 -12.5h-342q-17 0 -29.5 12.5t-12.5 29.5v43v0zM256 811q0 17 12.5 29.5t29.5 12.5h342q17 0 29.5 -12.5t12.5 -29.5v-43h-426v43zM170 725h598q17 0 29.5 -12.5t12.5 -29.5v-598q0 -17 -12.5 -29.5t-29.5 -12.5h-598
q-17 0 -29.5 12.5t-12.5 29.5v598q0 17 12.5 29.5t29.5 12.5zM256 597h426v-426h-426v426z" />
    <glyph glyph-name="MacBook" unicode="&#xe75a;" 
d="M981 214h43v-171q0 -35 -25 -60t-60 -25h-854q-35 0 -60 25t-25 60v171h43v512q0 35 25 60t60 25h768q35 0 60 -25t25 -60v-512zM85 726q0 17 12.5 29.5t30.5 12.5h768q18 0 30.5 -12.5t12.5 -29.5v-512h-854v512zM811 640v-341h-598v341h598zM981 171v-128
q0 -18 -12.5 -30.5t-29.5 -12.5h-854q-17 0 -29.5 12.5t-12.5 30.5v128h938z" />
    <glyph glyph-name="AppleUSB" unicode="&#xe75b;" 
d="M427 0h-171q-35 0 -60 25t-25 60v427q0 35 25 60t60 25v299h512v-299q36 0 61 -25t25 -60v-427q0 -35 -25 -60t-61 -25h-170v-128h-171v128zM214 512q0 18 12.5 30.5t29.5 12.5h512q18 0 30.5 -12.5t12.5 -30.5v-427q0 -17 -12.5 -29.5t-30.5 -12.5h-512
q-17 0 -29.5 12.5t-12.5 29.5v427zM299 853h427v-256h-427v256zM384 768h86v-85h-86v85zM555 768h85v-85h-85v85z" />
    <glyph glyph-name="Beats" unicode="&#xe75c;" 
d="M835 753q-141 115 -323 115t-323 -115q-22 -6 -35.5 -24.5t-13.5 -42.5q0 -28 20.5 -48.5t48.5 -20.5q24 0 42.5 13.5t24.5 35.5q104 80 235.5 80t236.5 -80q6 -22 24.5 -35.5t41.5 -13.5q29 0 49.5 20.5t20.5 48.5q0 24 -13.5 42.5t-35.5 24.5zM1024 384
q0 139 -68.5 257t-186.5 186.5t-257 68.5t-257 -68.5t-186.5 -186.5t-68.5 -257q0 -50 10 -99q-10 -19 -10 -41v-279q0 -38 27.5 -65.5t65.5 -27.5h93q39 0 66 27.5t27 65.5v279q0 39 -27 66.5t-66 27.5h-93q-23 0 -43 -11q-4 28 -4 57q0 95 37 181t99.5 148.5t148.5 99.5
t181 37t181 -37t148.5 -99.5t99.5 -148.5t37 -181q0 -29 -4 -57q-20 10 -43 10h-93q-39 0 -66 -27t-27 -66v-279q0 -38 27 -65.5t66 -27.5h93q38 0 65.5 27.5t27.5 65.5v279q0 22 -10 41q10 49 10 99zM46 244q0 20 14 33.5t33 13.5h93q19 0 33 -13.5t14 -33.5v-279
q0 -19 -13.5 -32.5t-33.5 -13.5h-93q-19 0 -33 13.5t-14 32.5v279zM791 244q0 20 14 33.5t33 13.5h93q19 0 33 -13.5t14 -33.5v-279q0 -19 -14 -32.5t-33 -13.5h-93q-19 0 -33 13.5t-14 32.5v279z" />
    <glyph glyph-name="Airpods" unicode="&#xe75d;" 
d="M213 597q0 53 37.5 90.5t90.5 37.5t90.5 -37.5t37.5 -90.5v-597q0 -53 -37.5 -90.5t-90.5 -37.5t-90.5 37.5t-37.5 90.5v597zM555 597q0 53 37.5 90.5t90.5 37.5t90.5 -37.5t37.5 -90.5v-597q0 -53 -37.5 -90.5t-90.5 -37.5t-90.5 37.5t-37.5 90.5v597zM256 597
q0 36 25 61t60.5 25t60.5 -25t25 -61v-597q0 -35 -25 -60t-60.5 -25t-60.5 25t-25 60v597zM597 597q0 36 25 61t60.5 25t60.5 -25t25 -61v-597q0 -35 -25 -60t-60.5 -25t-60.5 25t-25 60v597zM1024 782v-284l-8 -12q-37 -48 -90.5 -75t-114.5 -27q-106 0 -181 75t-75 181
t75 181t181 75q61 0 114.5 -27t90.5 -75zM9 794q36 48 90 75t114 27q106 0 181 -75t75 -181t-75 -181t-181 -75q-60 0 -114 27t-90 75l-9 12v284zM981 768q-29 40 -74 62.5t-96 22.5q-89 0 -151.5 -62.5t-62.5 -150.5t62.5 -150.5t151.5 -62.5q51 0 96 22.5t74 62.5v256z
M43 768q30 40 74.5 62.5t96.5 22.5q88 0 150.5 -62.5t62.5 -150.5t-62.5 -150.5t-150.5 -62.5q-52 0 -96.5 22.5t-74.5 62.5v256zM85 683h86v-43h-86v43zM939 683h-85v-43h85v43zM213 683h171v-43h-171v43zM811 683h-171v-43h171v43zM299 43h85v-86h-85v86zM640 43h85v-86
h-85v86z" />
    <glyph glyph-name="Lightning" unicode="&#xe75e;" 
d="M341 640h-43q-35 0 -60 -25t-25 -60v-512q0 -36 25 -61t60 -25h128v-85h171v85h128q35 0 60 25t25 61v512q0 35 -25 60t-60 25h-43v256h-341v-256zM256 555q0 17 12.5 29.5t29.5 12.5h427q18 0 30.5 -12.5t12.5 -29.5v-512q0 -18 -12.5 -30.5t-30.5 -12.5h-427
q-17 0 -29.5 12.5t-12.5 30.5v512v0zM384 853h256v-213h-256v213zM426 811h171v-86h-171v86z" />
    <glyph glyph-name="ApplePencil" unicode="&#xe75f;" 
d="M794 868q28 27 67.5 27t66.5 -27l68 -68q28 -28 28 -67t-28 -67l-748 -746q-21 -21 -54 -33.5t-63 -11.5l-81 3l-44 2l-2 44l-4 81q-1 30 12 63t34 54zM827 834q14 14 34 14t34 -14l67 -67q14 -14 14 -34t-14 -34l-747 -745q-14 -14 -38 -23.5t-44 -8.5l-81 4l-4 81
q-1 20 8.5 44t23.5 37zM747 697l82 -81l-68 -68l-81 82z" />
    <glyph glyph-name="AppleMouse" unicode="&#xe760;" 
d="M128 555q0 92 45.5 171t124.5 124.5t171 45.5h86q92 0 171 -45.5t124.5 -124.5t45.5 -171v-342q0 -92 -45.5 -171t-124.5 -124.5t-171 -45.5h-86q-92 0 -171 45.5t-124.5 124.5t-45.5 171v342zM171 555q0 123 87.5 210.5t210.5 87.5h86q123 0 210.5 -87.5t87.5 -210.5
v-342q0 -123 -87.5 -210.5t-210.5 -87.5h-86q-123 0 -210.5 87.5t-87.5 210.5v342zM469 640q0 18 12.5 30.5t30.5 12.5t30.5 -12.5t12.5 -30.5v-85q0 -18 -12.5 -30.5t-30.5 -12.5t-30.5 12.5t-12.5 30.5v85z" />
    <glyph glyph-name="MacPro" unicode="&#xe761;" 
d="M85 768q0 53 37.5 90.5t90.5 37.5h597q53 0 90.5 -37.5t37.5 -90.5v-768q0 -53 -37.5 -90.5t-90.5 -37.5h-597q-53 0 -90.5 37.5t-37.5 90.5v768zM128 768q0 35 25 60t60 25h597q36 0 61 -25t25 -60v-768q0 -35 -25 -60t-61 -25h-597q-35 0 -60 25t-25 60v768zM384 853
v-85h-86v85h86zM384 0v-85h-86v85h86v0zM554 853v-85h-85v85h85zM554 0v-85h-85v85h85v0zM725 853v-85h-85v85h85zM725 0v-85h-85v85h85v0z" />
    <glyph glyph-name="Keyboard" unicode="&#xe762;" 
d="M0 683q0 35 25 60t60 25h854q35 0 60 -25t25 -60v-598q0 -35 -25 -60t-60 -25h-854q-35 0 -60 25t-25 60v598zM43 683q0 17 12.5 29.5t29.5 12.5h854q17 0 29.5 -12.5t12.5 -29.5v-598q0 -17 -12.5 -29.5t-29.5 -12.5h-854q-17 0 -29.5 12.5t-12.5 29.5v598zM299 256h426
v-85h-426v85zM299 427h85v-86h-85v86zM213 597h86v-85h-86v85zM469 427h86v-86h-86v86zM384 597h85v-85h-85v85zM640 427h85v-86h-85v86zM555 597h85v-85h-85v85zM725 597h86v-85h-86v85z" />
    <glyph glyph-name="Trackpad" unicode="&#xe763;" 
d="M0 726q0 35 25 60t60 25h854q35 0 60 -25t25 -60v-683q0 -35 -25 -60t-60 -25h-854q-35 0 -60 25t-25 60v683zM43 726q0 17 12.5 29.5t29.5 12.5h854q17 0 29.5 -12.5t12.5 -29.5v-683q0 -18 -12.5 -30.5t-29.5 -12.5h-854q-17 0 -29.5 12.5t-12.5 30.5v683zM43 726
q0 17 12.5 29.5t29.5 12.5h854q17 0 29.5 -12.5t12.5 -29.5v-43h-938v43z" />
    <glyph glyph-name="DJIMavicPro" unicode="&#xe764;" 
d="M338 644q0 36 25.5 61.5t61.5 25.5h174q36 0 61.5 -25.5t25.5 -61.5v-347h-348v347zM382 644q0 18 12.5 31t30.5 13h174q18 0 30.5 -13t12.5 -31v-303h-260v303zM425 384h218v-262q0 -37 -25.5 -62.5t-61.5 -25.5h-88q-36 0 -61.5 25.5t-25.5 62.5v262h44zM425 341h174
v-217q0 -18 -13 -31t-31 -13h-86q-18 0 -31 13t-13 31v217zM382 644h43v-260h-43v260zM599 644h43v-260h-43v260zM191 859q6 6 6 15t-6 15t-15 6.5t-16 -5.5l-154 -154q-6 -6 -6 -15t6.5 -15.5t15.5 -6.5t15 6l64 64q1 -3 4 -6l245 -245q2 -2 6.5 -3t8.5 -0.5t7.5 1t6.5 1.5
l2 1v31l-245 245l-6 4zM987 705q6 -6 15 -6t15 6t6.5 15t-5.5 16l-154 154q-6 6 -15 6t-15.5 -6.5t-6.5 -15.5t6 -15l64 -64q-3 -1 -6 -4l-245 -245v-31q22 -8 31 0l245 245l4 6zM833 -91q-6 -6 -6 -15t6 -15t15 -6.5t16 5.5l154 154q6 6 6 15t-6.5 15.5t-15.5 6.5t-15 -6
l-64 -64q-1 3 -4 6l-275 288l-31 1v-31l275 -289l6 -4zM37 63q-6 6 -15 6t-15 -6t-6.5 -15t5.5 -16l154 -154q6 -6 15 -6t15.5 6.5t6.5 15.5t-6 15l-64 64q3 1 6 4l280 279v32l-31 -1l-280 -279l-4 -6z" />
    <glyph glyph-name="ipod" unicode="&#xe765;" 
d="M0 803q0 38 27.5 65.5t65.5 27.5h838q38 0 65.5 -27.5t27.5 -65.5v-838q0 -38 -27.5 -65.5t-65.5 -27.5h-838q-38 0 -65.5 27.5t-27.5 65.5v838zM46 803q0 19 14 33t33 14h838q19 0 33 -14t14 -33v-838q0 -19 -14 -32.5t-33 -13.5h-838q-19 0 -33 13.5t-14 32.5v838z
M791 384q0 116 -81.5 197.5t-197.5 81.5t-197.5 -81.5t-81.5 -197.5t81.5 -197.5t197.5 -81.5t197.5 81.5t81.5 197.5zM326 384q0 77 54.5 131.5t131.5 54.5t131.5 -54.5t54.5 -131.5t-54.5 -131.5t-131.5 -54.5t-131.5 54.5t-54.5 131.5z" />
    <glyph glyph-name="MagSafe" unicode="&#xe766;" 
d="M980 384v401q0 37 -26.5 63t-63.5 26h-801q-37 0 -63 -26t-26 -63v-801q0 -37 26 -63.5t63 -26.5h801q37 0 63.5 26.5t26.5 63.5v311h44v89h-44v0zM44 785q0 18 13.5 31t31.5 13h801q19 0 32 -13t13 -31v-801q0 -19 -13 -32t-32 -13h-801q-18 0 -31 13t-13 32v801h-1z
M401 473q0 -37 -26 -63t-63 -26h-223q-37 0 -63 26t-26 63v312q0 37 26 63t63 26h223q36 0 62.5 -26t26.5 -63v-312v0zM356 785q0 18 -13 31.5t-31 13.5h-223q-18 0 -31.5 -13.5t-13.5 -31.5v-312q0 -18 13.5 -31t31.5 -13h223q18 0 31 13t13 31v312v0z" />
    <glyph glyph-name="Chicken" unicode="&#xe767;" 
d="M809 -126q-53 0 -90.5 37.5t-37.5 90.5q0 14 3 28l-65 65v0l-83 84q-25 25 -25 60t25 60l61 61q25 25 60 25t60 -25l148 -148q16 2 29 2q53 0 90 -37t37 -90q0 -43 -25 -76.5t-65 -45.5q-12 -40 -46 -65.5t-76 -25.5zM855 162l-168 168q-12 13 -30 13t-30 -13l-61 -61
q-13 -12 -13 -30t13 -30l167 -168q-9 -18 -9 -39q0 -35 25 -60t60 -25t60 25t25 60q35 0 60 25t25 60t-25 60t-60 25q-21 0 -39 -10zM0 556q0 92 45.5 170.5t124 124t170.5 45.5q136 0 234 -93t106 -227q41 -36 63.5 -85.5t22.5 -104.5q0 -106 -75 -181t-180 -75
q-56 0 -105.5 22.5t-86.5 63.5q-133 8 -226 106t-93 234zM638 556q0 123 -87 210t-210.5 87t-210.5 -87t-87 -210.5t87 -210.5t210 -87q30 -40 74.5 -62.5t96.5 -22.5q88 0 150 62t62 150q0 52 -22.5 96.5t-62.5 74.5z" />
    <glyph glyph-name="BeverageCan" unicode="&#xe768;" 
d="M186 756v-744l97 -93h482l73 93v744l-84 94h-474zM154 789l94 93l13 14h514l14 -15l84 -93l12 -14v-778l-10 -13l-73 -93l-14 -18h-524l-13 13l-97 93l-14 14v784zM186 756l94 94h474l84 -94v-744l-73 -93h-482l-97 93v744zM140 872.5q0 9.5 7 16.5t16 7h699q9 0 16 -7
t7 -16.5t-7 -16.5t-16 -7h-699q-9 0 -16 7t-7 16.5zM140 -104.5q0 9.5 7 16.5t16 7h699q9 0 16 -7t7 -16.5t-7 -16.5t-16 -7h-699q-9 0 -16 7t-7 16.5zM186 338l652 372v-280l-652 -372v280z" />
    <glyph glyph-name="Beer" unicode="&#xe769;" 
d="M768 384v-427q0 -35 -25 -60t-60 -25h-342q-35 0 -60 25t-25 60v427q0 64 35.5 117.5t92.5 78.5v231q0 35 25 60t60 25h86q35 0 60 -25t25 -60v-231q58 -26 93 -79t35 -117zM725 213v-256q0 -17 -12.5 -29.5t-29.5 -12.5h-342q-17 0 -29.5 12.5t-12.5 29.5v427
q0 59 36 105t92 60v262q0 17 12.5 29.5t29.5 12.5h86q17 0 29.5 -12.5t12.5 -29.5v-262q56 -14 92 -60t36 -105v-171zM427 811q0 17 12.5 29.5t29.5 12.5h86q17 0 29.5 -12.5t12.5 -29.5v-86h-170v86zM299 299h426v-171h-426v171z" />
    <glyph glyph-name="BBQ" unicode="&#xe76a;" 
d="M973 -110l16 -16l33 33l-16 16l-955 955l-16 16l-33 -33l16 -16zM239 475q0 75 53.5 128.5t128.5 53.5t128.5 -53.5t53.5 -128.5t-53.5 -128.5t-128.5 -53.5t-128.5 53.5t-53.5 128.5zM512 202.5q0 75.5 53 128.5t128.5 53t129 -53t53.5 -128.5t-53.5 -129t-129 -53.5
t-128.5 53.5t-53 129zM421.5 339q56.5 0 96 39.5t39.5 96t-39.5 96.5t-96 40t-96.5 -40t-40 -96.5t40 -96t96.5 -39.5zM693.5 66q56.5 0 96.5 40t40 96.5t-40 96t-96.5 39.5t-96 -39.5t-39.5 -96t39.5 -96.5t96 -40zM58 581q-27 27 -27 64.5t27 64.5l128 128q27 27 64.5 27
t64.5 -27l128 -128q27 -27 27 -64.5t-27 -64.5l-128 -128q-27 -27 -64.5 -27t-64.5 27zM376 181q-27 26 -27 63.5t27 64.5l211 211q27 27 64.5 27t63.5 -27l44 -43q27 -27 27 -64.5t-27 -64.5l-211 -211q-27 -27 -64.5 -27t-63.5 27zM90 614q-14 13 -14 31.5t14 32.5
l128 128q13 14 32 14t32 -14l129 -128q13 -13 13 -32t-13 -32l-129 -129q-13 -13 -31.5 -13t-32.5 13zM408 213q-14 13 -14 32t14 32l211 211q13 13 32 13.5t32 -13.5l44 -44q13 -13 13 -32t-13 -32l-211 -211q-13 -13 -32 -13t-32 13z" />
    <glyph glyph-name="BirthdayCake" unicode="&#xe76b;" 
d="M84 246q-20 -12 -31.5 -31.5t-11.5 -42.5v-214q0 -36 25 -61t61 -25h770q35 0 60 25t25 61v214q0 23 -11.5 42.5t-30.5 31.5v225q0 35 -25.5 60.5t-60.5 25.5h-685q-35 0 -60 -25.5t-25 -60.5v-225zM84 172q0 17 12.5 29.5t30.5 12.5h770q18 0 30.5 -12.5t12.5 -29.5
v-214q0 -18 -13 -30.5t-30 -12.5h-770q-18 0 -30.5 12.5t-12.5 30.5v214zM127 471q0 18 12.5 30.5t29.5 12.5h685q18 0 30.5 -12.5t12.5 -30.5v-214h-770v214zM511 895l24 -16q48 -32 75.5 -83.5t27.5 -110.5t-27.5 -110.5t-75.5 -83.5l-24 -16l-24 16q-48 32 -76 83.5
t-28 110.5t28 110.5t76 83.5zM511 844q-39 -26 -62 -68t-23 -91t23 -91t62 -68q39 27 62 68.5t23 90.5t-23 91t-62 68zM127 471q0 18 12.5 30.5t29.5 12.5h685q18 0 30.5 -12.5t12.5 -30.5v-85h-770v85zM84 172q0 17 12.5 29.5t30.5 12.5h770q18 0 30.5 -12.5t12.5 -29.5
v-86h-856v86z" />
    <glyph glyph-name="Chips" unicode="&#xe76c;" 
d="M372 803h93v47h187v46h279v-512h-140l47 46v-279h-140l47 47v-93h-280v93l47 -47h-419v745h279v-46v-47zM326 756v94h-186v-652h372v-47h186v47h93v232h93v420h-186v-94v47h-186v-47h-186zM284 710h38l7 -38q14 -64 65 -106t117.5 -42t118 42t64.5 106l8 38h229
q40 0 66 -29.5t21 -69.5l-82 -652q-4 -37 -32.5 -62t-65.5 -25h-652q-37 0 -65.5 25t-32.5 62l-82 652q-5 40 21 69.5t66 29.5h191zM284 663h-191q-19 0 -31 -13.5t-10 -32.5l82 -652q2 -19 17.5 -33t34.5 -14h652q19 0 34 14t18 33l81 652q3 19 -9 32.5t-31 13.5h-191
q-16 -80 -80 -133t-148 -53t-148 53t-80 133z" />
    <glyph glyph-name="Coke" unicode="&#xe76d;" 
d="M512 -128q-49 0 -85 33q-37 -33 -86 -33q-53 0 -90.5 37.5t-37.5 90.5v121l21 13q22 12 22 37v85q0 25 -22 37l-21 12v25v182q0 82 47.5 148.5t123.5 93.5v57q0 35 25 60t60 25h85q36 0 61 -25t25 -60v-58q76 -26 123 -92.5t47 -148.5v-207l-21 -12q-21 -12 -21 -37v-85
q0 -25 21 -37l21 -13v-121q0 -53 -37.5 -90.5t-90.5 -37.5q-49 0 -85 32q-36 -32 -85 -32zM768 43v-43q0 -35 -25 -60t-60.5 -25t-60.5 25t-25 60q0 -35 -25 -60t-60.5 -25t-60 25t-24.5 60q0 -35 -25 -60t-60.5 -25t-60.5 25t-25 60v97q19 11 31 30.5t12 43.5v85
q0 23 -12 43t-31 31v182q0 77 48.5 135.5t122.5 73.5v90q0 17 12.5 29.5t29.5 12.5h86q17 0 29.5 -12.5t12.5 -29.5v-90q74 -15 122.5 -73.5t48.5 -135.5v-182q-20 -11 -31.5 -31t-11.5 -43v-85q0 -24 11.5 -43.5t31.5 -30.5v-54zM426 811q0 17 12.5 29.5t30.5 12.5h85
q18 0 30.5 -12.5t12.5 -29.5v-86h-171v86zM725 341v-256h-427v256h427z" />
    <glyph glyph-name="Draughtbeer" unicode="&#xe76e;" 
d="M235 128q0 -17 12.5 -29.5t30.5 -12.5h596q18 0 30.5 12.5t12.5 29.5v512q0 17 -12.5 29.5t-30.5 12.5h-596q-18 0 -30.5 -12.5t-12.5 -29.5v-512zM192 640q0 35 25 60t61 25h596q36 0 61 -25t25 -60v-512q0 -35 -25 -60t-61 -25h-596q-36 0 -61 25t-25 60v512zM64 810
q0 36 25 61t61 25h596q36 0 61 -25t25 -61v-852q0 -36 -25 -61t-61 -25h-596q-36 0 -60.5 25t-25.5 61v852v0zM107 810q0 18 12.5 30.5t30.5 12.5h596q18 0 30.5 -12.5t12.5 -30.5v-852q0 -18 -12.5 -30.5t-30.5 -12.5h-596q-18 0 -30.5 12.5t-12.5 30.5v852v0zM278 661
q0 9 6 15t15 6t15 -6t6 -15v-554q0 -9 -6 -15t-15 -6t-15 6t-6 15v554zM427 661q0 9 6 15t15 6t15 -6t6 -15v-554q0 -9 -6 -15t-15 -6t-15 6t-6 15v554zM576 661q0 9 6.5 15t15 6t15 -6t6.5 -15v-554q0 -9 -6.5 -15t-15.5 -6t-15 6t-6 15v554z" />
    <glyph glyph-name="Hamburger" unicode="&#xe76f;" 
d="M932 341h-840l-4 38q-3 24 -3 47q0 116 57.5 214.5t155.5 155.5t214 57t214 -57t155.5 -155.5t57.5 -214.5q0 -23 -3 -47zM128 128h811v-107q0 -44 -31.5 -75.5t-75.5 -31.5h-640q-44 0 -75.5 31.5t-31.5 75.5v107h43zM896 426q0 105 -51.5 193.5t-140 139.5t-192.5 51
t-192.5 -51t-140 -139.5t-51.5 -193.5q0 -21 2 -42h764q2 21 2 42zM128 85h768v-64q0 -26 -18.5 -45t-45.5 -19h-640q-26 0 -45 18.5t-19 45.5v64zM171 426h682q71 0 121 -50t50 -120.5t-50 -120.5t-121 -50h-682q-71 0 -121 50t-50 120.5t50 120.5t121 50zM43 256
q0 53 37.5 90.5t90.5 37.5h682q53 0 90.5 -37.5t37.5 -90.5t-37.5 -90.5t-90.5 -37.5h-682q-53 0 -90.5 37.5t-37.5 90.5zM341.5 512q17.5 0 30 12.5t12.5 30t-12.5 30t-30 12.5t-30 -12.5t-12.5 -30t12.5 -30t30 -12.5zM512 554q18 0 30.5 12.5t12.5 30.5t-12.5 30.5
t-30.5 12.5t-30.5 -12.5t-12.5 -30.5t12.5 -30.5t30.5 -12.5zM682.5 512q17.5 0 30 12.5t12.5 30t-12.5 30t-30 12.5t-30 -12.5t-12.5 -30t12.5 -30t30 -12.5z" />
    <glyph glyph-name="Drink" unicode="&#xe770;" 
d="M213 853q0 18 12.5 30.5t30.5 12.5h512q17 0 29.5 -12.5t12.5 -30.5v-157l116 -112q12 -12 12 -29v-598q0 -35 -25 -60t-60 -25h-683q-35 0 -60 25t-25 60v598q0 18 13 31q77 73 115 110v157zM768 683v170h-512v-175l-128 -123v-598q0 -17 12.5 -29.5t29.5 -12.5h683
q18 0 30.5 12.5t12.5 29.5v598l-126 128h-2zM255 683l530 -2l111 -126h-768zM640 555v-640h213q18 0 30.5 12.5t12.5 29.5v598l-126 128h3zM769 740l157 -156q12 -12 12 -29v-598q0 -35 -25 -60t-60 -25h-213q-18 0 -30.5 12.5t-12.5 30.5v640q0 18 13 31z" />
    <glyph glyph-name="Lipton" unicode="&#xe771;" 
d="M698 291q0 -19 13.5 -33t33.5 -14h186q19 0 32.5 14t13.5 33v279q0 19 -13.5 33t-32.5 14h-186q-20 0 -33.5 -14t-13.5 -33v-279zM652 570q0 39 27 66t66 27h186q38 0 65.5 -27t27.5 -66v-279q0 -39 -27.5 -66t-65.5 -27h-186q-39 0 -66 27t-27 66v279zM0 803
q0 38 27.5 65.5t65.5 27.5h652q38 0 65.5 -27.5t27.5 -65.5v-605q0 -89 -43.5 -164t-118.5 -118.5t-164 -43.5h-186q-89 0 -164 43.5t-118.5 118.5t-43.5 164v605zM46 803q0 19 14 33t33 14h652q19 0 32.5 -14t13.5 -33v-605q0 -116 -81.5 -197.5t-197.5 -81.5h-186
q-116 0 -198 81.5t-82 197.5v605zM46 803q0 19 14 33t33 14h233v-187h-280v140zM372 850h373q19 0 32.5 -14t13.5 -33v-140h-419v187zM372 617v233h-46v-233q-39 0 -66 -27.5t-27 -65.5v-140q0 -39 27 -66t66 -27h46q39 0 66.5 27t27.5 66v140q0 38 -27.5 65.5t-66.5 27.5z
M279 524q0 19 14 32.5t33 13.5h46q20 0 33.5 -13.5t13.5 -32.5v-140q0 -19 -13.5 -32.5t-33.5 -13.5h-46q-19 0 -33 13.5t-14 32.5v140z" />
    <glyph glyph-name="HotDog" unicode="&#xe772;" 
d="M244 780q66 67 160 67t160 -67l363 -363q66 -66 66 -160t-66 -160l-128 -128q-67 -67 -160.5 -67t-160.5 67l-362 363q-67 66 -67 160t67 160zM276 748q53 53 128 53t128 -53l363 -363q53 -53 53 -128t-53 -128l-128 -128q-53 -53 -128.5 -53t-128.5 53l-362 363
q-53 53 -53 128t53 128l128 128v0zM103 779.5q20 19.5 48 20t48 -19.5l709 -709q20 -20 20 -48t-20 -48t-48.5 -20t-47.5 20l-709 708q-20 20 -20 48.5t20 48zM231 651.5q7 6.5 16 6.5t16 -7l525 -525q7 -6 7 -15.5t-6.5 -16t-16 -6.5t-16.5 6l-525 525q-7 7 -7 16.5t7 16z
" />
    <glyph glyph-name="Lollipop" unicode="&#xe773;" 
d="M415 481zM44 481.5q0 -100.5 49.5 -186t135 -135t186 -49.5t186 49.5t135 135t49.5 186t-49.5 186t-135 135t-186 49.5t-186 -49.5t-135 -135t-49.5 -186zM669 355q-64 -64 -154.5 -64t-154.5 64q-50 50 -50 120.5t50 120.5q38 39 93 39t94 -39q29 -29 29 -71t-29 -72
q-23 -23 -54.5 -23t-54.5 23q-17 17 -17 40.5t17 40.5q6 6 6 15t-6 15.5t-15 6.5t-16 -7q-29 -29 -29 -70.5t29 -71.5q36 -35 85.5 -35t85.5 35q42 43 42 103t-42 102q-52 52 -125 52t-124 -52q-63 -63 -63 -151.5t63 -151.5q77 -77 185.5 -77t185.5 77q62 62 84 145t0 166
t-84 145q-6 7 -15 7t-15.5 -6.5t-6.5 -15.5t6 -15q82 -82 82 -197.5t-82 -197.5zM785 481.5q0 100.5 -49.5 186t-135 135t-186 49.5t-186 -49.5t-135 -135t-49.5 -186t49.5 -186t135 -135t186 -49.5t186 49.5t135 135t49.5 186zM0 481q0 113 55.5 208.5t151 150.5t208 55
t208 -55t151 -150.5t55 -208t-55.5 -208t-150.5 -151t-208 -55.5t-208 55.5t-151 151t-55.5 207.5v0zM986 -121q7 -6 16 -6t15.5 6t6.5 15t-7 16l-305 305q-7 6 -16 6t-15.5 -6t-6.5 -15t7 -16z" />
    <glyph glyph-name="Milk" unicode="&#xe774;" 
d="M341 811q0 35 25 60t60 25h171q35 0 60 -25t25 -60v-69l85 -84q19 -19 31 -48t12 -55v-598q0 -35 -25 -60t-60 -25h-427q-35 0 -60 25t-25 60v598q0 26 12.5 55t30.5 48q56 55 85 83v70zM384 723l-98 -96q-12 -12 -21 -33.5t-9 -38.5v-598q0 -17 12.5 -29.5t29.5 -12.5
h427q18 0 30.5 12.5t12.5 29.5v598q0 17 -9 38.5t-22 33.5l-97 97v87q0 17 -12.5 29.5t-30.5 12.5h-171q-17 0 -29.5 -12.5t-12.5 -29.5v-88v0zM384 811q0 17 12.5 29.5t29.5 12.5h171q18 0 30.5 -12.5t12.5 -29.5v-86h-256v86zM256 213h512v-170h-512v170z" />
    <glyph glyph-name="Paper" unicode="&#xe775;" 
d="M640 171v-299h-470q-35 0 -60 25t-25 60v854q0 35 25 60t60 25h683q35 0 60 -25t25 -60v-640h-298zM896 213v598q0 17 -12.5 29.5t-30.5 12.5h-683q-17 0 -29.5 -12.5t-12.5 -29.5v-854q0 -17 12.5 -29.5t29.5 -12.5h427v298h299zM640 -21v192h256v-86h-43v-42h-43v-43
h-42v-43h-43v-42h-85v64zM896 171h42v-43h-42v43zM640 -85h42v-43h-42v43zM853 128h43v-43h-43v43zM810 85h43v-42h-43v42zM725 0h43v-43h-43v43zM768 43h42v-43h-42v43zM682 -43h43v-42h-43v42z" />
    <glyph glyph-name="Maize" unicode="&#xe776;" 
d="M214 597q0 124 87.5 211.5t211 87.5t211 -87.5t87.5 -211.5v-341q0 -124 -87.5 -211.5t-211 -87.5t-211 87.5t-87.5 211.5v341v0zM256 597q0 106 75 181t181 75t181 -75t75 -181v-341q0 -106 -75 -181t-181 -75t-181 75t-75 181v341zM299 -128q-106 0 -181 75t-75 181
v427h256q106 0 181 -75t75 -181v-171q0 -8 32 -8t64 4l32 4q5 0 15 20.5t19 51.5t9 56v133l51 -10q89 -18 147 -89t58 -162q0 -106 -75 -181t-181 -75h-427v0zM726 -85q88 0 150.5 62.5t62.5 150.5q0 77 -48.5 135.5t-122.5 73.5v-81q0 -99 -67 -173q-9 2 -18 2h-175
q4 22 4 43v171q0 88 -62.5 150.5t-150.5 62.5h-213v-384q0 -88 62.5 -150.5t150.5 -62.5h427zM597.5 555q17.5 0 30 12.5t12.5 30t-12.5 30t-30 12.5t-30 -12.5t-12.5 -30t12.5 -30t30 -12.5zM427 555q18 0 30.5 12.5t12.5 30t-12.5 30t-30.5 12.5t-30.5 -12.5t-12.5 -30
t12.5 -30t30.5 -12.5zM597.5 384q17.5 0 30 12.5t12.5 30t-12.5 30t-30 12.5t-30 -12.5t-12.5 -30t12.5 -30t30 -12.5zM597.5 213q17.5 0 30 12.5t12.5 30.5t-12.5 30.5t-30 12.5t-30 -12.5t-12.5 -30.5t12.5 -30.5t30 -12.5z" />
    <glyph glyph-name="PotatoChips" unicode="&#xe777;" 
d="M85 811q0 35 25 60t60 25h683q35 0 60 -25t25 -60v-854q0 -35 -25 -60t-60 -25h-683q-35 0 -60 25t-25 60v854zM128 811q0 17 12.5 29.5t29.5 12.5h683q18 0 30.5 -12.5t12.5 -29.5v-854q0 -17 -12.5 -29.5t-30.5 -12.5h-683q-17 0 -29.5 12.5t-12.5 29.5v854v0zM213 811
h85v-854h-85v854zM384 811h85v-854h-85v854zM554 811h86v-854h-86v854zM725 811h85v-854h-85v854zM128 725h800l9 -30q0 -1 0.5 -3.5t1.5 -4.5q1 -6 5 -19q8 -31 15 -69q22 -114 22 -212t-22 -215q-7 -35 -15 -71q-2 -9 -5 -20q-1 -4 -2 -7l-9 -31h-832l-9 31q-1 3 -2 7
q-3 11 -5 20q-8 33 -15 71q-22 112 -22 207v6q0 97 22 213q6 34 15 69l5 20l2 8l9 30h32v0zM128 683h768q4 -17 11.5 -45t19 -106t11.5 -145t-10.5 -142.5t-21.5 -117.5l-10 -42h-768q-5 17 -12 46.5t-19 108.5t-12 145t10.5 140.5t21.5 115.5z" />
    <glyph glyph-name="RedWine" unicode="&#xe778;" 
d="M298 853h427l23 -276q8 -98 -55.5 -167t-161.5 -69h-39q-98 0 -161.5 69t-55.5 167zM768 640v-85q0 -106 -75 -181t-181 -75t-181 75t-75 181v85h512zM298 853l-23 -276q-8 -98 55.5 -167t161.5 -69h39q98 0 161.5 69t55.5 167l-23 276h-427zM298 896h466l4 -39l23 -277
q9 -116 -67 -198.5t-193 -82.5h-39q-117 0 -193 82.5t-66 198.5l23 277l3 39h39zM554 -85v384q0 17 -12.5 29.5t-30 12.5t-30 -12.5t-12.5 -29.5v-384h-107q-9 0 -15 -6.5t-6 -15t6 -15t15 -6.5h299q9 0 15 6.5t6 15t-6 15t-15 6.5h-107z" />
    <glyph glyph-name="Cocktail" unicode="&#xe779;" 
d="M514 682.5q0 88.5 62 151t150.5 62.5t151 -62.5t62.5 -151t-62.5 -151t-151 -62.5t-150.5 62.5t-62 151zM556 682.5q0 -70.5 50 -120.5t120.5 -50t121 50t50.5 120.5t-50.5 120.5t-121 50t-120.5 -50t-50 -120.5zM463 232q-13 -19 -35 -19t-35 19l-298 426q-15 21 -3 44
t38 23h597q26 0 38 -23t-3 -44zM428 256l299 427h-597zM428 256l209 299h-418zM450 -85v320q0 9 -6.5 15t-15.5 6t-15 -6t-6 -15v-320h-128q-9 0 -15 -6.5t-6 -15t6 -15t15 -6.5h299q8 0 14.5 6.5t6.5 15t-6.5 15t-14.5 6.5h-128z" />
    <glyph glyph-name="Coffee" unicode="&#xe77a;" 
d="M173 555q-1 17 10.5 29.5t29.5 12.5h597q18 0 29.5 -12.5t10.5 -29.5l-37 -598q-1 -17 -14.5 -29.5t-30.5 -12.5h-512q-18 0 -31.5 12.5t-14.5 29.5zM170 469h683v-426h-683v426zM210 -43q1 -17 14.5 -29.5t31.5 -12.5h512q17 0 30.5 12.5t14.5 29.5l37 598
q1 17 -10.5 29.5t-29.5 12.5h-597q-18 0 -29.5 -12.5t-10.5 -29.5zM130 552q-2 36 22.5 62t60.5 26h597q37 0 61 -26t22 -62l-37 -597q-2 -35 -28 -59t-60 -24h-512q-35 0 -60.5 24t-27.5 59zM762 810l134 1h42v-256h-853v256h43l133 -1l45 67l12 19h387l13 -19zM739 768
l-57 85h-341l-57 -85h-156v-171h768v171h-157zM384 256q0 -53 37.5 -90.5t90.5 -37.5t90.5 37.5t37.5 90.5t-37.5 90.5t-90.5 37.5t-90.5 -37.5t-37.5 -90.5z" />
    <glyph glyph-name="Popcorn" unicode="&#xe77b;" 
d="M384 640q0 88 62.5 150.5t151 62.5t150.5 -62.5t62 -150.5t-62 -150.5t-150.5 -62.5t-151 62.5t-62.5 150.5zM597 640zM426.5 640q-0.5 -71 50 -121t121 -50t120.5 50t50 121t-50 121t-120.5 50t-120.5 -50t-50.5 -121zM170.5 682.5q-0.5 88.5 62 151t151 62.5t151 -62.5
t62.5 -151t-62.5 -151t-150.5 -62.5t-150.5 62.5t-63 151zM213 682.5q0 -70.5 50 -120.5t120.5 -50t120.5 50t50 120.5t-50 120.5t-120.5 50t-120.5 -50t-50 -120.5zM554 640q0 71 50 121t121 50t121 -50t50 -121t-50 -121t-121 -50t-121 50t-50 121zM597 640
q0 -53 37.5 -90.5t90.5 -37.5t90.5 37.5t37.5 90.5t-37.5 90.5t-90.5 37.5t-90.5 -37.5t-37.5 -90.5zM128 640q0 71 50 121t120.5 50t120.5 -50t50 -121t-50 -121t-120.5 -50t-120.5 50t-50 121zM170 640q0 -53 38 -90.5t90.5 -37.5t90 37.5t37.5 90.5t-37.5 90.5t-90 37.5
t-90.5 -37.5t-38 -90.5zM91 550q-5 36 19 63t60 27h683q37 0 60.5 -27t19.5 -63l-75 -598q-4 -34 -30 -57t-60 -23h-512q-34 0 -60 23t-30 57zM133 555q-2 18 9 30t28 12h683q18 0 29 -12.5t9 -29.5l-75 -598q-2 -18 -16 -30t-32 -12h-512q-18 0 -32 12.5t-16 29.5zM277 512
h57l28 -512h-56zM490 512h43v-512h-43v512zM690 512h56l-28 -512h-57z" />
    <glyph glyph-name="PPT" unicode="&#xe77c;" 
d="M85 738v-640h854v640h-854zM85 781h896v-726h-938v726h42zM100 738h824q6 0 10.5 -4.5t4.5 -10.5v-610q0 -6 -4.5 -10.5t-10.5 -4.5h-824q-6 0 -10.5 4.5t-4.5 10.5v610q0 6 4.5 10.5t10.5 4.5zM555 738q0 -18 -12.5 -30.5t-30.5 -12.5t-30.5 12.5t-12.5 30.5h-448
q-9 0 -15 6.5t-6 15t6.5 15t14.5 6.5h448v42q0 18 12.5 30.5t30.5 12.5t30.5 -12.5t12.5 -30.5v-42h448q9 0 15 -6.5t6 -15.5t-6.5 -15t-14.5 -6h-448zM617 55h-210l-147 -147q-7 -6 -15.5 -6t-15 6t-6.5 15t7 15l116 117h-325q-9 0 -15 6.5t-6 15t6.5 15t14.5 6.5h982
q8 0 14.5 -6.5t6.5 -15t-6.5 -15t-14.5 -6.5h-325l116 -117q7 -6 7 -15t-6.5 -15t-15 -6t-15.5 6zM128 610h768v-427h-768v427z" />
    <glyph glyph-name="Floder" unicode="&#xe77d;" 
d="M931 803q38 0 65.5 -27.5t27.5 -65.5v-745q0 -38 -27.5 -65.5t-65.5 -27.5h-838q-38 0 -65.5 27.5t-27.5 65.5v838q0 38 27.5 65.5t65.5 27.5h373q38 0 65.5 -27.5t27.5 -65.5h372zM978 524v-559q0 -19 -14 -33t-33 -14h-838q-19 0 -33 14t-14 33v559h932zM512 756v47
q0 19 -13.5 32.5t-32.5 13.5h-373q-19 0 -32.5 -13.5t-13.5 -32.5v-233h931v140q0 19 -14 32.5t-33 13.5h-419z" />
    <glyph glyph-name="Shopping" unicode="&#xe77e;" 
d="M725 640q0 88 -62.5 150.5t-151 62.5t-151 -62.5t-62.5 -150.5t62.5 -150.5t151 -62.5t151 62.5t62.5 150.5zM256 640q0 106 75 181t181 75t181 -75t75 -181t-75 -181t-181 -75t-181 75t-75 181zM128 -43q0 -17 12.5 -29.5t29.5 -12.5h683q18 0 30.5 12.5t12.5 29.5v598
q0 17 -12.5 29.5t-30.5 12.5h-683q-17 0 -29.5 -12.5t-12.5 -29.5v-598v0zM85 555q0 35 25 60t60 25h683q35 0 60 -25t25 -60v-598q0 -35 -25 -60t-60 -25h-683q-35 0 -60 25t-25 60v598zM128 555q0 17 12.5 29.5t29.5 12.5h683q18 0 30.5 -12.5t12.5 -29.5v-598
q0 -17 -12.5 -29.5t-30.5 -12.5h-683q-17 0 -29.5 12.5t-12.5 29.5v598v0zM128 0h768v-43q0 -17 -12.5 -29.5t-30.5 -12.5h-683q-17 0 -29.5 12.5t-12.5 29.5v43v0z" />
    <glyph glyph-name="Briefcases" unicode="&#xe77f;" 
d="M981 161q20 11 31.5 31t11.5 43v427q0 35 -25 60t-60 25h-214v43q0 35 -25 60t-60 25h-256q-35 0 -60 -25t-25 -60v-43h-214q-35 0 -60 -25t-25 -60v-427q0 -23 11.5 -43t31.5 -31v-186q0 -34 25 -57.5t60 -23.5h768q35 0 60 23.5t25 57.5v186zM341 790q0 17 12.5 29.5
t30.5 12.5h256q18 0 30.5 -12.5t12.5 -29.5v-43h-342v43zM43 662q0 17 12.5 29.5t29.5 12.5h854q17 0 29.5 -12.5t12.5 -29.5v-427q0 -18 -12.5 -30.5t-29.5 -12.5h-854q-17 0 -29.5 12.5t-12.5 30.5v427zM85 150h854v-171q0 -18 -12.5 -30.5t-30.5 -12.5h-768
q-18 0 -30.5 12.5t-12.5 30.5v171zM299 576h426v-256h-426v256z" />
    <glyph glyph-name="Wallets" unicode="&#xe780;" 
d="M44 651v-667q0 -19 13.5 -32t31.5 -13h801q19 0 32 13t13 32v623q0 18 -13 31t-32 13h-846zM44 696h846q37 0 63.5 -26t26.5 -63v-623q0 -37 -26.5 -63t-63.5 -26h-801q-37 0 -63 26t-26 63v712h44zM44 651h846q19 0 32 -13t13 -31v-623q0 -19 -13 -32t-32 -13h-801
q-18 0 -31 13t-13 32v667h-1zM44 696h624v134h-557q-27 0 -46.5 -20t-19.5 -47zM0 763q0 46 32.5 78.5t78.5 32.5h601v-223h-712v112zM44 763q0 27 20 47t47 20h557v-134h-624v67zM757 429q-37 0 -63 -26t-26 -63v-89q0 -37 26 -63t63 -26h223v267h-223zM980 473h44v-356
h-267q-55 0 -94.5 39t-39.5 95v89q0 55 39.5 94t94.5 39h223v0zM980 429h-223q-37 0 -63 -26t-26 -63v-89q0 -37 26 -63t63 -26h223v267z" />
    <glyph glyph-name="Bill" unicode="&#xe781;" 
d="M85 725q0 36 25 61t60 25h683q35 0 60 -25t25 -61v-768q0 -35 -25 -60t-60 -25h-683q-35 0 -60 25t-25 60v768zM128 725q0 18 12.5 30.5t29.5 12.5h683q18 0 30.5 -12.5t12.5 -30.5v-768q0 -17 -12.5 -29.5t-30.5 -12.5h-683q-17 0 -29.5 12.5t-12.5 29.5v768v0zM341 896
h384v-256h-427v256h43zM341 853h341v-170h-341v170z" />
    <glyph glyph-name="Book" unicode="&#xe782;" 
d="M128 896h725q35 0 60 -25t25 -60v-854q0 -35 -25 -60t-60 -25h-768v1024h43zM384 853h483q12 0 20.5 -12.5t8.5 -29.5v-854q0 -17 -8.5 -29.5t-20.5 -12.5h-483v938zM128 853h170v-938h-170v938zM298 853h86v-938h-86v938z" />
    <glyph glyph-name="AndroidPhone" unicode="&#xe783;" 
d="M171 811q0 35 25 60t60 25h512q36 0 61 -25t25 -60v-854q0 -35 -25 -60t-61 -25h-512q-35 0 -60 25t-25 60v854zM214 811q0 17 12.5 29.5t29.5 12.5h512q18 0 30.5 -12.5t12.5 -29.5v-854q0 -17 -12.5 -29.5t-30.5 -12.5h-512q-17 0 -29.5 12.5t-12.5 29.5v854zM214 768
h597v-725h-597v725zM427 -21q0 9 6 15t15 6h128q9 0 15.5 -6t6.5 -15t-6.5 -15.5t-15.5 -6.5h-128q-8 0 -14.5 6.5t-6.5 15.5z" />
    <glyph glyph-name="Bedlamp" unicode="&#xe784;" 
d="M530 184v-267h156q9 0 15.5 -6.5t6.5 -16t-6.5 -16t-15.5 -6.5h-357q-9 0 -15.5 6.5t-6.5 16t6.5 16t15.5 6.5h156v267h-222v-67q0 -9 -6.5 -15.5t-16 -6.5t-16 6.5t-6.5 15.5v67h-89q-38 0 -63.5 27t-22.5 65l41 534q3 36 29.5 61t62.5 25h669q36 0 63 -25t29 -61
l41 -534q3 -38 -22.5 -65t-63.5 -27h-362zM128 807q2 18 16 31.5t32 13.5h669q18 0 32 -13.5t16 -31.5l41 -534q1 -19 -11 -32t-31 -13h-763q-19 0 -31 13t-10 32zM85 451h845v-45h-845v45z" />
    <glyph glyph-name="Battery" unicode="&#xe785;" 
d="M415 853h-202q-35 0 -60 -25t-25 -60v-811q0 -35 25 -60t60 -25h598q35 0 60 25t25 60v811q0 35 -25 60t-60 25h-202q0 18 -12.5 30.5t-29.5 12.5h-109q-18 0 -30.5 -12.5t-12.5 -30.5zM171 768q0 18 12.5 30.5t29.5 12.5h598q17 0 29.5 -12.5t12.5 -30.5v-811
q0 -17 -12.5 -29.5t-29.5 -12.5h-598q-17 0 -29.5 12.5t-12.5 29.5v811zM171 341h682v-384q0 -17 -12.5 -29.5t-29.5 -12.5h-598q-17 0 -29.5 12.5t-12.5 29.5v384z" />
    <glyph glyph-name="AndroidConnector" unicode="&#xe786;" 
d="M298 640q-35 0 -60 -25t-25 -60v-512q0 -36 25 -61t60 -25h128v-85h171v85h128q35 0 60 25t25 61v512q0 35 -25 60t-60 25v256h-427v-256zM256 555q0 17 12.5 29.5t29.5 12.5h427q18 0 30.5 -12.5t12.5 -29.5v-512q0 -18 -12.5 -30.5t-30.5 -12.5h-427q-17 0 -29.5 12.5
t-12.5 30.5v512v0zM341 853h341v-213h-341v213zM341 555h43v-512h-43v512zM640 555h42v-512h-42v512zM469 768h85v-128h-85v128z" />
    <glyph glyph-name="Battery1" unicode="&#xe787;" 
d="M661 853h-85q-39 0 -64 -29q-25 29 -64 29h-85q0 18 -12.5 30.5t-30.5 12.5h-43q-17 0 -29.5 -12.5t-12.5 -30.5h-86q-35 0 -60 -25t-25 -60v-811q0 -35 25 -60t60 -25h299q39 0 64 29q25 -29 64 -29h299q35 0 60 25t25 60v811q0 35 -25 60t-60 25h-86q0 18 -12.5 30.5
t-29.5 12.5h-43q-18 0 -30.5 -12.5t-12.5 -30.5zM107 768q0 18 12.5 30.5t29.5 12.5h299q18 0 30.5 -12.5t12.5 -30.5v-811q0 -17 -12.5 -29.5t-30.5 -12.5h-299q-17 0 -29.5 12.5t-12.5 29.5v811v0zM533 768q0 18 12.5 30.5t30.5 12.5h299q17 0 29.5 -12.5t12.5 -30.5v-811
q0 -17 -12.5 -29.5t-29.5 -12.5h-299q-18 0 -30.5 12.5t-12.5 29.5v811zM107 768q0 18 12.5 30.5t29.5 12.5h299q18 0 30.5 -12.5t12.5 -30.5v-512h-384v512zM533 768q0 18 12.5 30.5t30.5 12.5h299q17 0 29.5 -12.5t12.5 -30.5v-512h-384v512v0z" />
    <glyph glyph-name="Loudspeakerbox" unicode="&#xe788;" 
d="M0 811q0 35 25 60t60 25h512q36 0 61 -25t25 -60v-854q0 -35 -25 -60t-61 -25h-512q-35 0 -60 25t-25 60v854v0zM43 811q0 17 12.5 29.5t29.5 12.5h512q18 0 30.5 -12.5t12.5 -29.5v-854q0 -17 -12.5 -29.5t-30.5 -12.5h-512q-17 0 -29.5 12.5t-12.5 29.5v854zM597 341
q0 36 25 61t61 25h256q35 0 60 -25t25 -61v-384q0 -35 -25 -60t-60 -25h-256q-36 0 -61 25t-25 60v384zM640 341q0 18 12.5 30.5t30.5 12.5h256q17 0 29.5 -12.5t12.5 -30.5v-384q0 -17 -12.5 -29.5t-29.5 -12.5h-256q-18 0 -30.5 12.5t-12.5 29.5v384zM683 341h256v-256
h-256v256zM341.5 85q35.5 0 60.5 25t25 60.5t-25 60.5t-60.5 25t-60.5 -25t-25 -60.5t25 -60.5t60.5 -25zM171 512q0 71 50 121t120.5 50t120.5 -50t50 -121t-50 -121t-120.5 -50t-120.5 50t-50 121zM341 384q53 0 90.5 37.5t37.5 90.5t-37.5 90.5t-90.5 37.5t-90.5 -37.5
t-37.5 -90.5t37.5 -90.5t90.5 -37.5z" />
    <glyph glyph-name="PC" unicode="&#xe789;" 
d="M597 726q0 35 25 60t61 25h256q35 0 60 -25t25 -60v-683q0 -35 -25 -60t-60 -25h-256q-36 0 -61 25t-25 60v683zM640 726q0 17 12.5 29.5t30.5 12.5h256q17 0 29.5 -12.5t12.5 -29.5v-683q0 -18 -12.5 -30.5t-29.5 -12.5h-256q-18 0 -30.5 12.5t-12.5 30.5v683zM683 726
h256v-86h-256v86zM683 555h256v-85h-256v85zM384 43v85h-299q-35 0 -60 25t-25 61v426q0 36 25 61t60 25h683q35 0 60 -25t25 -61v-426q0 -36 -25 -61t-60 -25h-299v-85h107q9 0 15 -6.5t6 -15t-6 -15t-15 -6.5h-299q-8 0 -14.5 6.5t-6.5 15.5t6.5 15t14.5 6h107zM43 640
q0 18 12.5 30.5t29.5 12.5h683q18 0 30.5 -12.5t12.5 -30.5v-426q0 -18 -12.5 -30.5t-30.5 -12.5h-683q-17 0 -29.5 12.5t-12.5 30.5v426v0zM85 598h683v-342h-683v342z" />
    <glyph glyph-name="PowerSupply" unicode="&#xe78a;" 
d="M597 725h-171v128q0 18 -12.5 30.5t-30 12.5t-30 -12.5t-12.5 -30.5v-128h-85q-36 0 -61 -25t-25 -60v-171q-35 0 -60 -25t-25 -60v-427q0 -35 25 -60t60 -25h683q35 0 60 25t25 60v427q0 35 -25 60t-60 25v171q0 35 -25 60t-60 25h-86v128q0 18 -12.5 30.5t-30 12.5
t-30 -12.5t-12.5 -30.5v-128zM213 640q0 18 12.5 30.5t30.5 12.5h512q17 0 29.5 -12.5t12.5 -30.5v-171h-597v171zM128 384q0 18 12.5 30.5t29.5 12.5h683q18 0 30.5 -12.5t12.5 -30.5v-427q0 -17 -12.5 -29.5t-30.5 -12.5h-683q-17 0 -29.5 12.5t-12.5 29.5v427v0z" />
    <glyph glyph-name="Mouse" unicode="&#xe78b;" 
d="M130 682q0 88 62 150.5t150 62.5h340q88 0 150 -62.5t62 -150.5v-426q0 -104 -51 -192.5t-139 -139.5t-192 -51t-192 51t-139 139.5t-51 192.5v426zM172 682q0 71 50 121t120 50h340q70 0 120 -50t50 -121v-426q0 -92 -45.5 -170.5t-124 -124.5t-170.5 -46t-170.5 46
t-124 124.5t-45.5 170.5v426v0zM427 895h170v-248q0 -21 -12.5 -35.5t-29.5 -14.5h-85q-18 0 -30.5 14.5t-12.5 35.5v248zM470 767q0 18 12.5 30.5t30 12.5t30 -12.5t12.5 -30.5v-85q0 -17 -12.5 -29.5t-30 -12.5t-30 12.5t-12.5 29.5v85z" />
    <glyph glyph-name="Moto" unicode="&#xe78c;" 
d="M278 811q0 35 25 60t60 25h256q35 0 60 -25t25 -60v-854q0 -35 -25 -60t-60 -25h-256q-35 0 -60 25t-25 60v854zM320 838q0 7 4.5 11t10.5 4h312q6 0 10.5 -4t4.5 -11v-908q0 -7 -4.5 -11t-10.5 -4h-312q-6 0 -10.5 4t-4.5 11v908zM873 427q-16 144 -125 242.5t-257 98.5
q-104 0 -192.5 -51.5t-140 -140t-51.5 -192.5t51.5 -192.5t140 -140t192.5 -51.5q148 0 257 98.5t125 242.5h30q6 0 10.5 4.5t4.5 10.5v56q0 6 -4.5 10.5t-10.5 4.5h-30v0zM150 384q0 -93 45.5 -171.5t124 -124t171.5 -45.5t171.5 45.5t124 124t45.5 171.5t-45.5 171.5
t-124 124t-171.5 45.5t-171.5 -45.5t-124 -124t-45.5 -171.5zM832 384q0 93 -45.5 171.5t-124 124t-171.5 45.5t-171.5 -45.5t-124 -124t-45.5 -171.5h682z" />
    <glyph glyph-name="TableLamp" unicode="&#xe78d;" 
d="M378 618q55 96 159 133l-28 -40v57q0 53 37.5 90.5t90.5 37.5t90.5 -37.5t37.5 -90.5v-57l-29 40q90 -31 145 -108.5t55 -173.5v-42h-128q0 -71 -50 -121t-121 -50t-121 50t-50 121h-128v42q0 29 6 58l-204 -205l277 -240q9 -8 7 -20v-147h192q8 0 14.5 -6.5t6.5 -15
t-6.5 -15t-14.5 -6.5h-427q-9 0 -15 6.5t-6 15t6 15t15 6.5h192v141l-283 246q-10 9 -6 22q-1 10 6 17l272 272q3 3 8 5zM722 711q76 -27 123.5 -93t47.5 -149h-512q0 83 47.5 149t123.5 93v57q0 35 25 60t60 25t60 -25t25 -60v-57zM765 427q0 -53 -37.5 -90.5t-90.5 -37.5
t-90.5 37.5t-37.5 90.5h256z" />
    <glyph glyph-name="Laptop" unicode="&#xe78e;" 
d="M981 214v512q0 35 -25 60t-60 25h-768q-35 0 -60 -25t-25 -60v-512h-43v-171q0 -35 25 -60t60 -25h854q35 0 60 25t25 60v171h-43zM939 299v-85h-854v85h854zM128 768h768q18 0 30.5 -12.5t12.5 -29.5v-427h-854v427q0 17 12.5 29.5t30.5 12.5zM43 171h938v-128
q0 -18 -12.5 -30.5t-29.5 -12.5h-854q-17 0 -29.5 12.5t-12.5 30.5v128z" />
  </font>
</defs>
</svg>
